<svg id="Layer_1" data-name="Layer 1" xmlns="http://www.w3.org/2000/svg" viewBox="0 0 399.34 374.22"><defs><style>.cls-1{fill:none;}.cls-2{fill:#bf202f;}.cls-3{fill:#47cfac;}.cls-4{fill:#fefdfd;}</style></defs><title>corazon</title><path class="cls-1" d="M632.46,221.12c-.2,0-.29.16-.38.32h0C632.17,221.28,632.26,221.13,632.46,221.12Z" transform="translate(-300.33 -62.89)"/><path class="cls-1" d="M413.38,152.25h0Z" transform="translate(-300.33 -62.89)"/><path class="cls-1" d="M673.73,133c-8.55-22.42-24-37.9-46.6-46.15a98.76,98.76,0,0,0-32.08-5.64c-3.54-.07-7.08.06-10.62.31a114.94,114.94,0,0,0-17,2.36,111.62,111.62,0,0,0-55.18,30.95,7.21,7.21,0,0,1-2.17,1.66c-2.92,1.3-5.81,2.62-8.69,4a2.54,2.54,0,0,1-2.41,0c-2.3-1.1-4.61-2.17-6.95-3.18a14.92,14.92,0,0,1-4.66-3.22q-32-31.62-77-32.83a112.78,112.78,0,0,0-15.91.71A93.86,93.86,0,0,0,371,87.59a75.77,75.77,0,0,0-31,21.77,80,80,0,0,0-14.51,25.78,112.28,112.28,0,0,0-5.85,36.12,132.67,132.67,0,0,0,1.05,17.59,91.39,91.39,0,0,0,3.79,17.4,103.83,103.83,0,0,0,11.85,24.16A209.88,209.88,0,0,0,351.75,251c8.1,9.68,16.64,19,25.28,28.15q31,33,62.07,65.95,16.77,17.79,33.56,35.57l25.55,27c.49.52,1,1,1.48,1.54a.59.59,0,0,0,.92.05c.41-.39.79-.81,1.18-1.23q6.65-7,13.28-14.07l94.7-100.64c9-9.55,18-19.08,26.75-28.82,6.5-7.22,12.87-14.55,18.78-22.25A146.88,146.88,0,0,0,669.75,220,89.59,89.59,0,0,0,678.56,194a137.74,137.74,0,0,0,1.77-22.21,131.78,131.78,0,0,0-1.39-18.43A99.42,99.42,0,0,0,673.73,133Zm-14.87,34.9a16.76,16.76,0,0,1-.71,1.77,457.47,457.47,0,0,1-21.64,43.79c-1.13,2-2.3,4.07-3.43,6.11-.26.46-.65.9-.53,1.49.63-.74,1.27-1.47,1.87-2.24,3-3.91,6.08-7.82,9.08-11.76a5.8,5.8,0,0,1,7.54-1.81,3.37,3.37,0,0,1,1.94,4,12.56,12.56,0,0,1-.71,2q-4.71,11.37-10.21,22.39c-.35.7-.71,1.39-1,2.09a3.86,3.86,0,0,0-.52,1.36c0,.59.68.62,1.07.89a6,6,0,0,1,2.36,3.67,3.6,3.6,0,0,1-1.52,3.94c-1.62,1-2.25,2.62-3.12,4.13a80.21,80.21,0,0,1-10.09,14.16,57.79,57.79,0,0,1-10.39,8.71,4.9,4.9,0,0,1-7.23-2.31,3.85,3.85,0,0,1,.14-3.47c.27-.5.61-1,.91-1.43q3.72-5.82,7.41-11.65a3.77,3.77,0,0,0,.9-2.07l-12.29,15.92-24,31.11c-.31.39-.6.8-.92,1.17a5.21,5.21,0,0,1-8.74-.71l-.34-.54c-.53,0-.67.42-.89.72-11.28,15.2-23.1,30-34.79,44.84-4.91,6.24-9.76,12.52-14.64,18.78a16.21,16.21,0,0,1-1.35,1.63,5.2,5.2,0,0,1-7,.29,3.89,3.89,0,0,1-1.25-4.58,14,14,0,0,1,1.07-2.07q12.29-21.12,24.57-42.25c12.84-22.18,25.51-44.47,37.73-67a6.06,6.06,0,0,0,1.19-2.78c-3.65,6-7.32,12.06-10.93,18.11-10.8,18.06-21.45,36.2-32.44,54.14-5.15,8.41-10.48,16.69-16.4,24.57a161.94,161.94,0,0,1-19.95,22.32c-.47.43-.92.88-1.43,1.27a5,5,0,0,1-7-.82,3.81,3.81,0,0,1-.6-4.36,16.08,16.08,0,0,1,1-1.65q27.58-44.07,51.07-90.45,24.38-48.18,44.06-98.47a14.05,14.05,0,0,0,.86-2.85c-.59,1-1.19,1.95-1.76,2.93-10.17,17.54-19.67,35.43-28.83,53.49-10.13,20-20.13,40-30.24,59.95-9.86,19.46-20.06,38.75-31.07,57.59-3.54,6-7.23,12-10.85,18a19.41,19.41,0,0,1-1.16,1.78,4.34,4.34,0,0,1-4.92,1.64,4.78,4.78,0,0,1-3.69-4,4.08,4.08,0,0,1,.45-2.47c.36-.77.77-1.51,1.17-2.26q28.39-53.28,52.38-108.68Q553,190.37,572.49,132.9a9,9,0,0,0,.51-2.31c-.57.84-1.15,1.68-1.71,2.53a320.76,320.76,0,0,0-21.23,37.76c-6.28,12.93-12,26.13-17.51,39.4-6.3,15.1-12.73,30.14-19.75,44.92-11.74,24.71-24.56,48.84-38,72.67-2.85,5.06-5.73,10.1-8.6,15.15-.21.37-.45.73-.64,1.11-1.71,3.47-6.52,2.94-8.49.58a3.34,3.34,0,0,1-.7-3.19,17.45,17.45,0,0,1,.74-2l60.72-143.38q7.45-17.61,14.92-35.21c.3-.71.58-1.43.93-2.29a5.88,5.88,0,0,0-1.66,2.05c-4.27,6.44-8.15,13.12-11.82,19.91-3.88,7.17-7.56,14.43-11.16,21.74-6.54,13.28-13.47,26.36-20.33,39.48l-40.46,77.38c-.3.57-.57,1.15-.9,1.69a4.14,4.14,0,0,1-5.51,1.76,4.84,4.84,0,0,1-2.72-6.64c1.21-2.48,2.41-5,3.62-7.45L515.12,159c.43-.87.83-1.76,1.37-2.91a3.79,3.79,0,0,0-1.53,1.36,375.71,375.71,0,0,0-26.65,35.25,573.27,573.27,0,0,0-32.71,55.92C446.49,266.19,438,284,429.66,301.94c-1.35,2.89-2.71,5.77-4,8.67a4.16,4.16,0,0,1-2.9,2.57,6,6,0,0,1-5.82-2.25,3.45,3.45,0,0,1-.44-3.05,15.94,15.94,0,0,1,.71-1.77q26.74-62,53.5-124.06l.92-2.15a.85.85,0,0,0,0-.83,8.59,8.59,0,0,0-1.47,2.32q-18.47,33.26-36.92,66.51-10.09,18.22-20.12,36.47c-1.23,2.23-2.53,4.43-3.8,6.64l-.63,1.11c-2.22,3.85-7.1,2.39-8.52-.41a4.32,4.32,0,0,1-.1-3.7,14.44,14.44,0,0,1,.9-1.69c4.53-8.17,9.1-16.33,13.61-24.52,6.55-11.92,12.58-24.11,18.42-36.39q14.68-30.91,26.75-62.94a5.63,5.63,0,0,0,.69-2.38A7,7,0,0,0,459,162,687.51,687.51,0,0,0,405,263.8c-.86,2-1.75,4-2.59,6.05a5.38,5.38,0,0,1-6.92,2.89c-2.37-.78-3.49-2.88-2.48-5.2s2.07-5,3.13-7.44q18.48-43,37-86.08c.44-1,.82-2.08,1.22-3.12h0q-9.56,13.78-19.12,27.55Q398.08,223.17,381,247.89a12.76,12.76,0,0,1-1.56,2,5,5,0,0,1-7.8-1.35,4,4,0,0,1-.09-3.49,13.68,13.68,0,0,1,.9-1.69l47.1-82.2c.35-.61.69-1.23,1.06-1.9-.84,0-1,.64-1.38,1.05-3.94,4.65-7.75,9.4-11.48,14.22-10.56,13.69-20.37,27.92-30,42.29-2.25,3.35-4.48,6.72-6.73,10.07a12.44,12.44,0,0,1-1.27,1.69,4.61,4.61,0,0,1-6,.57,4.5,4.5,0,0,1-1.81-5.57,21,21,0,0,1,.91-1.92,787,787,0,0,1,51.8-89c.43-.64.82-1.32,1.23-2a3.31,3.31,0,0,1-.27-.26,4.55,4.55,0,0,0-1.74,1.16,209.41,209.41,0,0,0-24.14,22.66c-10,10.85-19.06,22.46-27.92,34.23-1.83,2.43-3.64,4.88-5.47,7.31a11.94,11.94,0,0,1-1.38,1.61,4.84,4.84,0,0,1-5.72.56,4.53,4.53,0,0,1-2-5.32,16,16,0,0,1,1-2.35A258.39,258.39,0,0,1,364,161.5c1.21-1.92,2.45-3.82,3.67-5.72.21-.34.5-.66.26-1.09-3.93,4.18-7.59,8.59-11.21,13-.63.77-1.22,1.57-1.89,2.29a5.2,5.2,0,0,1-6.22,1.16,4.15,4.15,0,0,1-2.09-5.54,17.67,17.67,0,0,1,1-1.88l14.11-25.46c.37-.67.69-1.38,1-2.08a3,3,0,0,1-.25-.25,4,4,0,0,0-1.56,1.05q-4.74,3.78-9.71,7.24a16.12,16.12,0,0,1-1.61,1,3.84,3.84,0,0,1-3.86-.11,5.11,5.11,0,0,1-2.15-6.44c.21-.44.46-.88.69-1.31a174.37,174.37,0,0,1,25.61-35.36c.34-.36.67-.73,1-1.06a4.25,4.25,0,0,1,5.29-.49,4.85,4.85,0,0,1,2.49,4c0,.33,0,.67,0,1,.63,0,.79-.46,1-.77.79-1,1.51-2.06,2.35-3a4.94,4.94,0,0,1,6.17-1.21,4.27,4.27,0,0,1,2.1,5.74c-.22.51-.52,1-.79,1.5Q383.28,119,377.05,130.2c-.34.6-.64,1.22-1,1.87.53.24.7-.14.93-.32a5.67,5.67,0,0,0,.62-.58q7-6.79,14.49-13.12c2.6-2.2,5.24-4.34,7.86-6.51a5.38,5.38,0,0,1,5.38-1,5.44,5.44,0,0,1,2.17,1.28,3.42,3.42,0,0,1,.64,4.61,8.5,8.5,0,0,1-.62.86q-7.92,10.38-15.83,20.78a.54.54,0,0,0,.7-.11q.87-.78,1.71-1.59A178.28,178.28,0,0,1,425,112.46c2.36-1.42,4.76-2.81,7.2-4.09a5.21,5.21,0,0,1,6.37,1.31,3.85,3.85,0,0,1,.4,4.72c-.33.54-.73,1-1.1,1.56q-11.76,16.29-22.68,33.15c-.42.66-.8,1.34-1.19,2,0,0,.06.12.14.26a6,6,0,0,0,1.59-1.58c5.07-5.82,10.33-11.48,15.84-16.9,2.87-2.84,5.84-5.58,8.77-8.37a13,13,0,0,1,1.11-1,4.83,4.83,0,0,1,6.57.38,4.33,4.33,0,0,1,1,4.88,16.2,16.2,0,0,1-.91,1.69q-4.64,8.12-9.28,16.23a3.67,3.67,0,0,0-.83,2.08l1.58-2.24,13.08-18.87,1-1.39c1.81-2.57,5.72-2.64,7.95-.72a3.32,3.32,0,0,1,1.05,3.84c-.23.67-.52,1.32-.8,2q-4.65,10.83-9.29,21.67a4.16,4.16,0,0,0-.65,2c.66-.34.88-1,1.22-1.49q9.11-14,18.83-27.55c.45-.63.89-1.28,1.38-1.88a5.32,5.32,0,0,1,6.71-1.36,3.85,3.85,0,0,1,2.09,4.79c-.51,1.77-1.12,3.5-1.69,5.25-2.65,8.08-5.48,16.09-8.37,24.08-.21.59-.42,1.18-.73,2a4.67,4.67,0,0,0,1.36-1.83c1.7-3.1,3.37-6.22,5.11-9.31a82.09,82.09,0,0,1,8.35-12.54A49,49,0,0,1,495,127a5,5,0,0,1,6.59.48,3.81,3.81,0,0,1,1.09,4.44c-.25.66-.55,1.3-.83,2q-12.21,28.28-24.41,56.56c-.33.76-.62,1.55-1,2.49a4.06,4.06,0,0,0,1.48-1.72c7.13-10.84,14.71-21.36,22.84-31.47a331.36,331.36,0,0,1,29-31.67c.51-.49,1-1,1.56-1.44a4.43,4.43,0,0,1,5.68-.29,4.83,4.83,0,0,1,1.72,5.85c-.69,1.63-1.52,3.2-2.28,4.79a38.87,38.87,0,0,0-1.64,3.58,5.15,5.15,0,0,0,1.63-1.58,135.16,135.16,0,0,1,10-10.68l.62-.59a5.44,5.44,0,0,1,7.18-.22,3.52,3.52,0,0,1,1.33,4,14.86,14.86,0,0,1-.69,1.78l-16.55,39.12c-.21.51-.4,1-.66,1.74a3.74,3.74,0,0,0,1.24-1.92c3.77-7.93,7.71-15.77,12-23.46a268.31,268.31,0,0,1,24.23-36.92c2.2-2.77,4.5-5.46,6.77-8.19.36-.44.75-.84,1.12-1.28,2.62-3.11,6.92-1.18,8.07,1.49a4.53,4.53,0,0,1,0,3.32c-1,3-1.92,6.07-2.9,9.1q-13.3,41-28.92,81.22a6.61,6.61,0,0,0-.72,2.37,5.12,5.12,0,0,0,1.34-2c3.66-6.71,7.26-13.46,11-20.15,9.88-17.77,20.4-35.16,31.88-52,.36-.53.72-1.06,1.09-1.57a5.33,5.33,0,0,1,7.58-.78,3.6,3.6,0,0,1,1.3,4c-.19.68-.41,1.35-.64,2a1141.47,1141.47,0,0,1-58.71,139.71q-1.38,2.76-2.74,5.52c0,.05,0,.13,0,.22.7-.28.85-1,1.18-1.5q8.25-13.75,16.48-27.53Q600.54,192,632.79,138.08c.21-.37.44-.73.65-1.1,1.94-3.35,6.77-2.6,8.55-.2a3.27,3.27,0,0,1,.51,3.21c-.27.73-.59,1.44-.9,2.16-12,27.52-25.19,54.5-39.05,81.15-13.41,25.76-27.46,51.17-41.85,76.4-.44.78-.87,1.59-1.32,2.42.8.09,1-.53,1.23-.91,4.13-5.58,8.29-11.14,12.34-16.79,3.21-4.49,6.31-9.07,9.4-13.65a276.57,276.57,0,0,0,18.71-32.34c3.65-7.36,7.29-14.73,11.19-22A245.24,245.24,0,0,1,641.52,174c2.66-3.13,5.44-6.16,8.17-9.24l.57-.62a5.09,5.09,0,0,1,7.54-.16A3.67,3.67,0,0,1,658.86,167.89Z" transform="translate(-300.33 -62.89)"/><path class="cls-1" d="M413.56,152.15h0l0-.29Z" transform="translate(-300.33 -62.89)"/><path class="cls-2" d="M698.07,151a115,115,0,0,0-6.5-25c-9.91-25.37-27.34-43.5-52.42-54.2C625.68,66,611.53,63.44,597,63c-4.4-.14-8.78,0-13.18.27A135.92,135.92,0,0,0,563.39,66a128.7,128.7,0,0,0-51,23.72,133.15,133.15,0,0,0-11.31,9.66c-.86.82-.88.8-1.72,0-2.06-1.84-4.06-3.75-6.18-5.53A129.05,129.05,0,0,0,419,63.38a138.69,138.69,0,0,0-20.18-.2,128,128,0,0,0-21,3.09,102.34,102.34,0,0,0-30.54,12.49C328.63,90.32,315.7,106.53,308,127a125.78,125.78,0,0,0-7.57,39.27A149.88,149.88,0,0,0,302,194.64a106.33,106.33,0,0,0,10,31.88,154.72,154.72,0,0,0,15.42,24.39c7.27,9.62,15.21,18.68,23.33,27.58,12,13.21,24.34,26.14,36.59,39.14Q442.42,376,497.53,434.36l2.61,2.75c.49-.49.8-.78,1.09-1.08,2.25-2.36,4.51-4.71,6.75-7.08q46-48.82,92-97.66,20.84-22.12,41.6-44.34c7.84-8.39,15.55-16.9,22.88-25.74a215.11,215.11,0,0,0,17.6-24,114.14,114.14,0,0,0,13.45-30.38,131.67,131.67,0,0,0,4.12-30.46A142.26,142.26,0,0,0,698.07,151Zm-19.51,43A89.59,89.59,0,0,1,669.75,220a146.88,146.88,0,0,1-14.45,22.25c-5.91,7.7-12.28,15-18.78,22.25-8.77,9.74-17.77,19.27-26.75,28.82L515.07,394Q508.44,401,501.79,408c-.39.42-.77.84-1.18,1.23a.59.59,0,0,1-.92-.05c-.49-.52-1-1-1.48-1.54l-25.55-27q-16.79-17.79-33.56-35.57-31-33-62.07-65.95c-8.64-9.19-17.18-18.47-25.28-28.15a209.88,209.88,0,0,1-15.42-20.56,103.83,103.83,0,0,1-11.85-24.16,91.39,91.39,0,0,1-3.79-17.4,132.67,132.67,0,0,1-1.05-17.59,112.28,112.28,0,0,1,5.85-36.12A80,80,0,0,1,340,109.36a75.77,75.77,0,0,1,31-21.77,93.86,93.86,0,0,1,23.47-5.66,112.78,112.78,0,0,1,15.91-.71q45,1.22,77,32.83a14.92,14.92,0,0,0,4.66,3.22c2.34,1,4.65,2.08,6.95,3.18a2.54,2.54,0,0,0,2.41,0c2.88-1.37,5.77-2.69,8.69-4a7.21,7.21,0,0,0,2.17-1.66A111.62,111.62,0,0,1,567.4,83.87a114.94,114.94,0,0,1,17-2.36c3.54-.25,7.08-.38,10.62-.31a98.76,98.76,0,0,1,32.08,5.64c22.57,8.25,38,23.73,46.6,46.15a99.42,99.42,0,0,1,5.21,20.32,131.78,131.78,0,0,1,1.39,18.43A137.74,137.74,0,0,1,678.56,194Z" transform="translate(-300.33 -62.89)"/><path class="cls-3" d="M650.26,164.17l-.57.62c-2.73,3.08-5.51,6.11-8.17,9.24a245.24,245.24,0,0,0-29.27,42.44c-3.9,7.23-7.54,14.6-11.19,22a276.57,276.57,0,0,1-18.71,32.34c-3.09,4.58-6.19,9.16-9.4,13.65-4.05,5.65-8.21,11.21-12.34,16.79-.28.38-.43,1-1.23.91.45-.83.88-1.64,1.32-2.42,14.39-25.23,28.44-50.64,41.85-76.4,13.86-26.65,27-53.63,39.05-81.15.31-.72.63-1.43.9-2.16a3.27,3.27,0,0,0-.51-3.21c-1.78-2.4-6.61-3.15-8.55.2-.21.37-.44.73-.65,1.1q-32.26,53.86-64.52,107.75Q560,259.6,551.79,273.36c-.33.53-.48,1.22-1.18,1.5,0-.09,0-.17,0-.22q1.36-2.76,2.74-5.52a1141.47,1141.47,0,0,0,58.71-139.71c.23-.67.45-1.34.64-2a3.6,3.6,0,0,0-1.3-4,5.33,5.33,0,0,0-7.58.78c-.37.51-.73,1-1.09,1.57-11.48,16.8-22,34.19-31.88,52-3.72,6.69-7.32,13.44-11,20.15a5.12,5.12,0,0,1-1.34,2,6.61,6.61,0,0,1,.72-2.37q15.62-40.2,28.92-81.22c1-3,1.93-6.07,2.9-9.1a4.53,4.53,0,0,0,0-3.32c-1.15-2.67-5.45-4.6-8.07-1.49-.37.44-.76.84-1.12,1.28-2.27,2.73-4.57,5.42-6.77,8.19a268.31,268.31,0,0,0-24.23,36.92c-4.25,7.69-8.19,15.53-12,23.46a3.74,3.74,0,0,1-1.24,1.92c.26-.7.45-1.23.66-1.74l16.55-39.12a14.86,14.86,0,0,0,.69-1.78,3.52,3.52,0,0,0-1.33-4,5.44,5.44,0,0,0-7.18.22l-.62.59a135.16,135.16,0,0,0-10,10.68,5.15,5.15,0,0,1-1.63,1.58,38.87,38.87,0,0,1,1.64-3.58c.76-1.59,1.59-3.16,2.28-4.79a4.83,4.83,0,0,0-1.72-5.85,4.43,4.43,0,0,0-5.68.29c-.55.44-1,.95-1.56,1.44a331.36,331.36,0,0,0-29,31.67c-8.13,10.11-15.71,20.63-22.84,31.47a4.06,4.06,0,0,1-1.48,1.72c.38-.94.67-1.73,1-2.49q12.21-28.28,24.41-56.56c.28-.65.58-1.29.83-2a3.81,3.81,0,0,0-1.09-4.44A5,5,0,0,0,495,127a49,49,0,0,0-8.85,8.23,82.09,82.09,0,0,0-8.35,12.54c-1.74,3.09-3.41,6.21-5.11,9.31a4.67,4.67,0,0,1-1.36,1.83c.31-.85.52-1.44.73-2,2.89-8,5.72-16,8.37-24.08.57-1.75,1.18-3.48,1.69-5.25a3.85,3.85,0,0,0-2.09-4.79,5.32,5.32,0,0,0-6.71,1.36c-.49.6-.93,1.25-1.38,1.88q-9.74,13.56-18.83,27.55c-.34.52-.56,1.15-1.22,1.49a4.16,4.16,0,0,1,.65-2q4.64-10.84,9.29-21.67c.28-.65.57-1.3.8-2a3.32,3.32,0,0,0-1.05-3.84c-2.23-1.92-6.14-1.85-7.95.72l-1,1.39-13.08,18.87L438,148.81a3.67,3.67,0,0,1,.83-2.08q4.64-8.13,9.28-16.23a16.2,16.2,0,0,0,.91-1.69,4.33,4.33,0,0,0-1-4.88,4.83,4.83,0,0,0-6.57-.38,13,13,0,0,0-1.11,1c-2.93,2.79-5.9,5.53-8.77,8.37-5.51,5.42-10.77,11.08-15.84,16.9a6,6,0,0,1-1.59,1.58c-.08-.14-.16-.23-.14-.26.39-.67.77-1.35,1.19-2q10.95-16.85,22.68-33.15c.37-.52.77-1,1.1-1.56a3.85,3.85,0,0,0-.4-4.72,5.21,5.21,0,0,0-6.37-1.31c-2.44,1.28-4.84,2.67-7.2,4.09a178.28,178.28,0,0,0-30.87,23.9q-.84.81-1.71,1.59a.54.54,0,0,1-.7.11q7.92-10.4,15.83-20.78a8.5,8.5,0,0,0,.62-.86,3.42,3.42,0,0,0-.64-4.61,5.44,5.44,0,0,0-2.17-1.28,5.38,5.38,0,0,0-5.38,1c-2.62,2.17-5.26,4.31-7.86,6.51q-7.44,6.33-14.49,13.12a5.67,5.67,0,0,1-.62.58c-.23.18-.4.56-.93.32.34-.65.64-1.27,1-1.87q6.22-11.23,12.47-22.47c.27-.5.57-1,.79-1.5a4.27,4.27,0,0,0-2.1-5.74A4.94,4.94,0,0,0,382,101.7c-.84,1-1.56,2-2.35,3-.25.31-.41.76-1,.77,0-.34,0-.68,0-1a4.85,4.85,0,0,0-2.49-4,4.25,4.25,0,0,0-5.29.49c-.37.33-.7.7-1,1.06a174.37,174.37,0,0,0-25.61,35.36c-.23.43-.48.87-.69,1.31a5.11,5.11,0,0,0,2.15,6.44,3.84,3.84,0,0,0,3.86.11,16.12,16.12,0,0,0,1.61-1q5-3.45,9.71-7.24a4,4,0,0,1,1.56-1.05c0-.19.16-.4.37-.23s0,.34-.12.48c-.35.7-.67,1.41-1,2.08l-14.11,25.46a17.67,17.67,0,0,0-1,1.88,4.15,4.15,0,0,0,2.09,5.54,5.2,5.2,0,0,0,6.22-1.16c.67-.72,1.26-1.52,1.89-2.29,3.62-4.45,7.28-8.86,11.21-13,.24.43-.05.75-.26,1.09-1.22,1.9-2.46,3.8-3.67,5.72a258.39,258.39,0,0,0-15.86,28.81,16,16,0,0,0-1,2.35,4.53,4.53,0,0,0,2,5.32,4.84,4.84,0,0,0,5.72-.56,11.94,11.94,0,0,0,1.38-1.61c1.83-2.43,3.64-4.88,5.47-7.31,8.86-11.77,17.93-23.38,27.92-34.23a209.41,209.41,0,0,1,24.14-22.66,4.55,4.55,0,0,1,1.74-1.16c.07-.21.2-.39.4-.22s0,.33-.13.48c-.41.66-.8,1.34-1.23,2a787,787,0,0,0-51.8,89,21,21,0,0,0-.91,1.92,4.5,4.5,0,0,0,1.81,5.57,4.61,4.61,0,0,0,6-.57,12.44,12.44,0,0,0,1.27-1.69c2.25-3.35,4.48-6.72,6.73-10.07,9.61-14.37,19.42-28.6,30-42.29,3.73-4.82,7.54-9.57,11.48-14.22.35-.41.54-1.1,1.38-1.05-.37.67-.71,1.29-1.06,1.9l-47.1,82.2a13.68,13.68,0,0,0-.9,1.69,4,4,0,0,0,.09,3.49,5,5,0,0,0,7.8,1.35,12.76,12.76,0,0,0,1.56-2q17.13-24.7,34.25-49.43,9.56-13.78,19.12-27.55l.05-.07,0,.06c-.4,1-.78,2.09-1.22,3.12q-18.47,43-37,86.08c-1.06,2.47-2.05,5-3.13,7.44s.11,4.42,2.48,5.2a5.38,5.38,0,0,0,6.92-2.89c.84-2,1.73-4,2.59-6.05A687.51,687.51,0,0,1,459,162a7,7,0,0,1,1.39-1.89,5.63,5.63,0,0,1-.69,2.38q-12.11,32-26.75,62.94c-5.84,12.28-11.87,24.47-18.42,36.39-4.51,8.19-9.08,16.35-13.61,24.52A14.44,14.44,0,0,0,400,288a4.32,4.32,0,0,0,.1,3.7c1.42,2.8,6.3,4.26,8.52.41l.63-1.11c1.27-2.21,2.57-4.41,3.8-6.64q10.07-18.22,20.12-36.47,18.44-33.27,36.92-66.51a8.59,8.59,0,0,1,1.47-2.32.85.85,0,0,1,0,.83l-.92,2.15q-26.76,62-53.5,124.06a15.94,15.94,0,0,0-.71,1.77,3.45,3.45,0,0,0,.44,3.05,6,6,0,0,0,5.82,2.25,4.16,4.16,0,0,0,2.9-2.57c1.32-2.9,2.68-5.78,4-8.67,8.36-17.9,16.83-35.75,25.94-53.29a573.27,573.27,0,0,1,32.71-55.92A375.71,375.71,0,0,1,515,157.48a3.79,3.79,0,0,1,1.53-1.36c-.54,1.15-.94,2-1.37,2.91L442.75,308.58c-1.21,2.48-2.41,5-3.62,7.45a4.84,4.84,0,0,0,2.72,6.64,4.14,4.14,0,0,0,5.51-1.76c.33-.54.6-1.12.9-1.69l40.46-77.38c6.86-13.12,13.79-26.2,20.33-39.48,3.6-7.31,7.28-14.57,11.16-21.74,3.67-6.79,7.55-13.47,11.82-19.91a5.88,5.88,0,0,1,1.66-2.05c-.35.86-.63,1.58-.93,2.29q-7.46,17.61-14.92,35.21L457.12,339.54a17.45,17.45,0,0,0-.74,2,3.34,3.34,0,0,0,.7,3.19c2,2.36,6.78,2.89,8.49-.58.19-.38.43-.74.64-1.11,2.87-5,5.75-10.09,8.6-15.15,13.43-23.83,26.25-48,38-72.67,7-14.78,13.45-29.82,19.75-44.92,5.53-13.27,11.23-26.47,17.51-39.4a320.76,320.76,0,0,1,21.23-37.76c.56-.85,1.14-1.69,1.71-2.53a9,9,0,0,1-.51,2.31Q553,190.37,528.91,246.05q-24,55.4-52.38,108.68c-.4.75-.81,1.49-1.17,2.26a4.08,4.08,0,0,0-.45,2.47,4.78,4.78,0,0,0,3.69,4,4.34,4.34,0,0,0,4.92-1.64,19.41,19.41,0,0,0,1.16-1.78c3.62-6,7.31-12,10.85-18,11-18.84,21.21-38.13,31.07-57.59,10.11-20,20.11-40,30.24-59.95C566,206.38,575.5,188.49,585.67,171c.57-1,1.17-2,1.76-2.93a14.05,14.05,0,0,1-.86,2.85q-19.68,50.28-44.06,98.47Q519,315.72,491.44,359.79a16.08,16.08,0,0,0-1,1.65,3.81,3.81,0,0,0,.6,4.36,5,5,0,0,0,7,.82c.51-.39,1-.84,1.43-1.27A161.94,161.94,0,0,0,519.5,343c5.92-7.88,11.25-16.16,16.4-24.57,11-17.94,21.64-36.08,32.44-54.14,3.61-6.05,7.28-12.07,10.93-18.11a6.06,6.06,0,0,1-1.19,2.78c-12.22,22.54-24.89,44.83-37.73,67q-12.24,21.15-24.57,42.25a14,14,0,0,0-1.07,2.07A3.89,3.89,0,0,0,516,364.9a5.2,5.2,0,0,0,7-.29,16.21,16.21,0,0,0,1.35-1.63c4.88-6.26,9.73-12.54,14.64-18.78,11.69-14.87,23.51-29.64,34.79-44.84.22-.3.36-.75.89-.72l.34.54a5.21,5.21,0,0,0,8.74.71c.32-.37.61-.78.92-1.17l24-31.11,12.29-15.92a3.77,3.77,0,0,1-.9,2.07q-3.67,5.83-7.41,11.65c-.3.47-.64.93-.91,1.43a3.85,3.85,0,0,0-.14,3.47,4.9,4.9,0,0,0,7.23,2.31,57.79,57.79,0,0,0,10.39-8.71,80.21,80.21,0,0,0,10.09-14.16c.87-1.51,1.5-3.09,3.12-4.13a3.6,3.6,0,0,0,1.52-3.94,6,6,0,0,0-2.36-3.67c-.39-.27-1.09-.3-1.07-.89a3.86,3.86,0,0,1,.52-1.36c.33-.7.69-1.39,1-2.09q5.52-11,10.21-22.39a12.56,12.56,0,0,0,.71-2,3.37,3.37,0,0,0-1.94-4,5.8,5.8,0,0,0-7.54,1.81c-3,3.94-6,7.85-9.08,11.76-.6.77-1.24,1.5-1.87,2.24-.12-.59.27-1,.53-1.49,1.13-2,2.3-4.07,3.43-6.11a457.47,457.47,0,0,0,21.64-43.79,16.76,16.76,0,0,0,.71-1.77A3.67,3.67,0,0,0,657.8,164,5.09,5.09,0,0,0,650.26,164.17Zm-281.81-9.92,0,.06,0,0,0,0-.05,0c0,.18-.07.34-.23.36a.55.55,0,0,1-.18-.05l0,0,0,0,.06,0,.41-.31s0-.06,0-.08l.07,0,.05-.1h0a.08.08,0,0,1,.06,0S368.56,154.22,368.45,154.25Zm23-15.37,0,.05,0,.07h0c0,.3-.18.45-.48.42l0,.06,0-.06h0l0,0c0-.31.2-.38.45-.41l0-.06.27-.83s0,0,0-.07l0,0v0C391.85,138.42,391.65,138.65,391.47,138.88Zm22.09,13.27v.08l0,0,0,0h-.11l-.14.1a.73.73,0,0,1,.08-.09h.07l.06-.05.05,0,0-.29C413.92,152,413.68,152.08,413.56,152.15ZM550.2,275.81l0-.15.11,0Zm29.07-29.71h.07l.2-.23c.12.29,0,.25-.2.23l0,0ZM559.15,303a2,2,0,0,1-.28.2c0-.12.09-.24.14-.34s.1,0,.14,0S559.18,303,559.15,303Zm58.76-76.3a2.69,2.69,0,0,1,.67-1.71s.11-.05.13,0,.11.14.09.17C618.51,225.7,618.21,226.22,617.91,226.74Zm3,24.91,0,0h0Zm4.68-38.1c-1,1.86-2.08,3.68-3.15,5.5s-2.13,3.63-3.19,5.45l-.37-.26a166.51,166.51,0,0,1,9.48-16.16A31.91,31.91,0,0,1,625.62,213.55Zm3.24-6.2,0-.13.08.08Zm3.7,13.78h-.06a.56.56,0,0,1-.42.32l0,.05-.11.22c-.1-.1-.07-.19.07-.26l0,0,0,0h.07c.09-.16.18-.31.38-.32h0l0,0Z" transform="translate(-300.33 -62.89)"/><path class="cls-3" d="M391.39,139h0Z" transform="translate(-300.33 -62.89)"/><path class="cls-4" d="M619.28,224.5c1.06-1.82,2.14-3.63,3.19-5.45s2.15-3.64,3.15-5.5a31.91,31.91,0,0,0,2.77-5.47,166.51,166.51,0,0,0-9.48,16.16Z" transform="translate(-300.33 -62.89)"/><path class="cls-4" d="M618.58,225a2.69,2.69,0,0,0-.67,1.71c.3-.52.6-1,.89-1.57,0,0,0-.12-.09-.17S618.61,225,618.58,225Z" transform="translate(-300.33 -62.89)"/><path class="cls-4" d="M559,302.9c0,.1-.09.22-.14.34a2,2,0,0,0,.28-.2s0-.11,0-.17S559,302.87,559,302.9Z" transform="translate(-300.33 -62.89)"/><path class="cls-4" d="M391.7,138.1l-.27.83,0-.05C391.65,138.65,391.85,138.42,391.7,138.1Z" transform="translate(-300.33 -62.89)"/><path class="cls-4" d="M391.66,138s0,.05,0,.07v0Z" transform="translate(-300.33 -62.89)"/><path class="cls-4" d="M391.4,139h0l0-.07,0,.06Z" transform="translate(-300.33 -62.89)"/><path class="cls-4" d="M632,221.45c-.14.07-.17.16-.07.26l.11-.22Z" transform="translate(-300.33 -62.89)"/><path class="cls-4" d="M413.59,151.86l0,.29C413.68,152.08,413.92,152,413.59,151.86Z" transform="translate(-300.33 -62.89)"/><path class="cls-4" d="M413.51,152.19l0,0v-.08h0Z" transform="translate(-300.33 -62.89)"/><path class="cls-4" d="M413.3,152.34l.14-.1h-.06A.73.73,0,0,0,413.3,152.34Z" transform="translate(-300.33 -62.89)"/><path class="cls-4" d="M413.44,152.24h.11l0,0-.06.05Z" transform="translate(-300.33 -62.89)"/><path class="cls-4" d="M368.5,154.15l-.05.1c.11,0,.15-.06.13-.09a.08.08,0,0,0-.06,0Z" transform="translate(-300.33 -62.89)"/><path class="cls-4" d="M368.42,154.31l0-.06-.07,0Z" transform="translate(-300.33 -62.89)"/><path class="cls-4" d="M368,154.66a.55.55,0,0,0,.18.05c.16,0,.2-.18.23-.36Z" transform="translate(-300.33 -62.89)"/><path class="cls-4" d="M367.93,154.68l0,0-.06,0Z" transform="translate(-300.33 -62.89)"/><path class="cls-4" d="M368.42,154.31l0,0s0,0,0,.08Z" transform="translate(-300.33 -62.89)"/><path class="cls-4" d="M416,130.23c-.2-.17-.33,0-.4.22a3.31,3.31,0,0,0,.27.26C416,130.56,416.16,130.39,416,130.23Z" transform="translate(-300.33 -62.89)"/><polygon class="cls-4" points="134 108.02 134.03 108 134.05 107.94 134 108.02"/><polygon class="cls-4" points="328.52 144.46 328.63 144.41 328.55 144.33 328.52 144.46"/><path class="cls-4" d="M362.78,135.74c-.21-.17-.32,0-.37.23a3,3,0,0,0,.25.25C362.79,136.08,363,135.89,362.78,135.74Z" transform="translate(-300.33 -62.89)"/><path class="cls-4" d="M632.08,221.44a.56.56,0,0,0,.42-.32h0C632.26,221.13,632.17,221.28,632.08,221.44Z" transform="translate(-300.33 -62.89)"/><path class="cls-4" d="M632.56,221.13l0,0,0,0Z" transform="translate(-300.33 -62.89)"/><path class="cls-4" d="M632,221.45l0,0,0-.05H632Z" transform="translate(-300.33 -62.89)"/><polygon class="cls-4" points="90.6 76.51 90.58 76.53 90.58 76.53 90.58 76.52 90.6 76.51"/><path class="cls-4" d="M391.39,139c-.25,0-.46.1-.45.41v0c.3,0,.45-.12.48-.42h0Z" transform="translate(-300.33 -62.89)"/><polygon class="cls-4" points="90.6 76.51 90.58 76.52 90.58 76.53 90.56 76.59 90.59 76.53 90.6 76.51"/><path class="cls-4" d="M579.54,245.87l-.2.23C579.49,246.12,579.66,246.16,579.54,245.87Z" transform="translate(-300.33 -62.89)"/><path class="cls-4" d="M579.27,246.1l0,0,0,0Z" transform="translate(-300.33 -62.89)"/><polygon class="cls-4" points="320.61 188.76 320.72 188.75 320.65 188.74 320.61 188.76"/><polygon class="cls-4" points="249.87 212.92 249.94 212.78 249.83 212.77 249.87 212.92"/></svg>