<svg id="Layer_1" data-name="Layer 1" xmlns="http://www.w3.org/2000/svg" viewBox="0 0 286.16 286.14"><defs><style>.cls-1{fill:#47cfac;}.cls-2{fill:#fff;}.cls-3{fill:#0a8c80;}</style></defs><title>correo</title><path class="cls-1" d="M643.08,231.57A143.08,143.08,0,1,1,500.6,88.47,143.14,143.14,0,0,1,643.08,231.57Zm-223.5-16.75c.08-.44.47-.63.76-.9.86-.78,1.72-1.56,2.61-2.31a1.94,1.94,0,0,0,.77-1.64c0-2.2,0-4.41,0-6.61a1.49,1.49,0,0,0,0-.52c-.06-.15-.23-.3-.4-.17-.42.31-.83.64-1.21,1l-8.73,7.74c-.39.35-.74.84-1.19,1-1,.29-1.35,1.05-1.81,1.77a20.24,20.24,0,0,0-2.28,5.06,21.57,21.57,0,0,0-.75,6.19v70.84c0,.35,0,.7,0,1.05a19.75,19.75,0,0,0,5.95,13.87,24.37,24.37,0,0,0,10.5,6.26,28.94,28.94,0,0,0,8.59,1.14H569a25.71,25.71,0,0,0,9-1.78,24,24,0,0,0,7.8-4.81,20.29,20.29,0,0,0,6.8-15.45q0-31.75,0-63.53c0-2.72,0-5.45,0-8.18a18.34,18.34,0,0,0-.68-5.16c-1-3.44-2.46-6.62-5.45-8.85-.18-.13-.35-.3-.53-.45q-6.64-5.75-13.31-11.48c-.32-.28-.59-.73-1.24-.63,0,2.54,0,5.09,0,7.63A1.46,1.46,0,0,0,572,207c1.81,1.55,3.61,3.1,5.41,4.67a2.1,2.1,0,0,1,.88,1c-.29.26-.53.5-.8.71-2.07,1.69-4.12,3.39-6.22,5-.7.55-1.23,1.38-2.23,1.47a6.27,6.27,0,0,1-.16-2.55q0-22.53,0-45.08a18.57,18.57,0,0,0-4.52-12.48,19.27,19.27,0,0,0-15.31-7H446a18.4,18.4,0,0,0-3.63.29c-7.8,1.54-13,6-15.51,13.59a18.28,18.28,0,0,0-.75,5.84q0,22.28,0,44.56c0,.58,0,1.16,0,1.74s-.34.73-.78.41c-1.88-1.36-3.74-2.74-5.61-4.12A.93.93,0,0,1,419.58,214.82Zm79.51-70.77c.57.48,1,.84,1.45,1.22,1.72,1.48,3.44,2.94,5.14,4.44a2.58,2.58,0,0,0,1.87.71c2.56,0,5.11,0,7.66,0,.26,0,.59.11.78-.33-.26-.25-.53-.54-.82-.8l-15.29-13.19c-.17-.15-.35-.31-.53-.45a.48.48,0,0,0-.63,0l-.4.33-15.49,13.76c-.15.13-.42.25-.26.59a2,2,0,0,0,.45.1c2.67,0,5.33,0,8,0a2.17,2.17,0,0,0,1.56-.61c1.16-1.06,2.34-2.09,3.51-3.13Z" transform="translate(-356.92 -88.47)"/><path class="cls-2" d="M419.58,214.82a.93.93,0,0,0,.15.3c1.87,1.38,3.73,2.76,5.61,4.12.44.32.75.14.78-.41s0-1.16,0-1.74q0-22.29,0-44.56a18.28,18.28,0,0,1,.75-5.84c2.51-7.57,7.71-12.05,15.51-13.59a18.4,18.4,0,0,1,3.63-.29H549.08a19.27,19.27,0,0,1,15.31,7,18.57,18.57,0,0,1,4.52,12.48q0,22.54,0,45.08a6.27,6.27,0,0,0,.16,2.55c1-.09,1.53-.92,2.23-1.47,2.1-1.64,4.15-3.34,6.22-5,.27-.21.51-.45.8-.71a2.1,2.1,0,0,0-.88-1c-1.8-1.57-3.6-3.12-5.41-4.67a1.46,1.46,0,0,1-.69-1.13c0-2.54,0-5.09,0-7.63.65-.1.92.35,1.24.63q6.67,5.73,13.31,11.48c.18.15.35.32.53.45,3,2.23,4.46,5.41,5.45,8.85a18.34,18.34,0,0,1,.68,5.16c0,2.73,0,5.46,0,8.18q0,31.77,0,63.53a20.29,20.29,0,0,1-6.8,15.45,24,24,0,0,1-7.8,4.81,25.71,25.71,0,0,1-9,1.78H432.34a28.94,28.94,0,0,1-8.59-1.14,24.37,24.37,0,0,1-10.5-6.26,19.75,19.75,0,0,1-5.95-13.87c0-.35,0-.7,0-1.05V225.4a21.57,21.57,0,0,1,.75-6.19,20.24,20.24,0,0,1,2.28-5.06c.46-.72.85-1.48,1.81-1.77.45-.15.8-.64,1.19-1l8.73-7.74c.38-.34.79-.67,1.21-1,.17-.13.34,0,.4.17a1.49,1.49,0,0,1,0,.52c0,2.2,0,4.41,0,6.61a1.94,1.94,0,0,1-.77,1.64c-.89.75-1.75,1.53-2.61,2.31C420.05,214.19,419.66,214.38,419.58,214.82Zm77.85-57.26H447c-.81,0-1.62,0-2.43,0a14.62,14.62,0,0,0-13,10.38,16.18,16.18,0,0,0-.57,4.64v48.9a2,2,0,0,1,0,.35,2.13,2.13,0,0,0,1.12,2.32c.69.41,1.32.94,2,1.41l45.77,33.5c1.62,1.18,1.11,1.12,2.83.07,5.3-3.22,10.58-6.48,15.87-9.72,1.63-1,1.22-1,2.9,0l16.76,10.27c1.33.81,1.09.92,2.37-.13q21.3-17.25,42.6-34.48a2.31,2.31,0,0,0,1-2q0-25.5,0-51A14.61,14.61,0,0,0,552.9,158a18.86,18.86,0,0,0-4.49-.4ZM417.91,305.81c.17.23.33.47.52.68a16.89,16.89,0,0,0,6.43,4.34,20.68,20.68,0,0,0,7.68,1.25H567.37a29.18,29.18,0,0,0,3-.14,17.09,17.09,0,0,0,10.27-4.63c1.8-1.72,1.65-1.44-.33-2.7l-.15-.08-78.43-48.08c-2.16-1.32-1.44-1.29-3.49,0q-23.15,14.16-46.26,28.35l-32.47,19.91A4.51,4.51,0,0,0,417.91,305.81ZM523.5,263l2.1,1.3,50.55,31,7.41,4.55c.92.57,1.3.83,1.43-.76.07-1,.12-2,.12-2.95q0-35.31,0-70.63c0-.52,0-1,0-1.56a12.89,12.89,0,0,0-2.28-7c-1.14-1.69-1-1.48-2.43-.33l-.13.12-55.55,45A3.54,3.54,0,0,0,523.5,263Zm-108.24,37.4c.64-.37,1.19-.68,1.73-1l41.08-25.17q9-5.5,17.93-11c1.18-.72,1.17-.74,0-1.6-.13-.11-.28-.21-.42-.31L417.76,219c-.33-.24-.66-.48-1-.69a.39.39,0,0,0-.59.14,6.94,6.94,0,0,0-.39.77A14.19,14.19,0,0,0,414.7,225q0,35.85,0,71.7c0,.58,0,1.16,0,1.74A4.31,4.31,0,0,0,415.26,300.41Z" transform="translate(-356.92 -88.47)"/><path class="cls-3" d="M497.43,157.56h51a18.86,18.86,0,0,1,4.49.4,14.61,14.61,0,0,1,11.2,14.16q0,25.5,0,51a2.31,2.31,0,0,1-1,2q-21.32,17.22-42.6,34.48c-1.28,1.05-1,.94-2.37.13l-16.76-10.27c-1.68-1-1.27-1-2.9,0-5.29,3.24-10.57,6.5-15.87,9.72-1.72,1.05-1.21,1.11-2.83-.07L434,225.6c-.65-.47-1.28-1-2-1.41a2.13,2.13,0,0,1-1.12-2.32,2,2,0,0,0,0-.35v-48.9a16.18,16.18,0,0,1,.57-4.64,14.62,14.62,0,0,1,13-10.38c.81,0,1.62,0,2.43,0Zm22.09,72-1.69.65c-1.9.7-3.79,1.46-5.71,2.09a38.92,38.92,0,0,1-19.56,1.57,34.43,34.43,0,0,1-12-4.48c-10.05-6.25-16.62-17.92-13.28-32.29a31.25,31.25,0,0,1,5.51-11.34,33.78,33.78,0,0,1,12.09-10,15.17,15.17,0,0,1,2.93-1.09,40.69,40.69,0,0,1,21.65,0,27.12,27.12,0,0,1,12.33,7.17,20.74,20.74,0,0,1,6.06,12.79,27.2,27.2,0,0,1-6.54,21.15,16.77,16.77,0,0,1-5.12,4.12,7.78,7.78,0,0,1-3,1,3.66,3.66,0,0,1-4.17-2.39,6.19,6.19,0,0,1-.37-1.34,11.28,11.28,0,0,1,.21-4.48c.28-1.13.6-2.24.86-3.37q2.44-10.77,4.88-21.54c.35-1.52.7-3,1-4.58.12-.56,0-.74-.62-.75q-3.14,0-6.27,0c-.66,0-.74.1-.94.77a9.2,9.2,0,0,1-.67,2.3c-.06,0-.14,0-.18,0-.23-.16-.48-.32-.69-.5a11.6,11.6,0,0,0-4.25-2.31,16.16,16.16,0,0,0-12.48,1.21,21.23,21.23,0,0,0-7.26,6.12A27.82,27.82,0,0,0,477,201.57a29.86,29.86,0,0,0-.68,10.36,16.28,16.28,0,0,0,2.8,7.22,13.41,13.41,0,0,0,9.42,5.67,15.78,15.78,0,0,0,12.79-3.77c.29-.24.51-.64,1.07-.55,1.56,2.91,4.29,4.23,7.37,5a14.63,14.63,0,0,0,4.67.37,15.58,15.58,0,0,0,7.56-2.32,21.85,21.85,0,0,0,3.8-3c8-8.42,11.21-18.28,8.58-29.72A27.58,27.58,0,0,0,521,172.53a43.31,43.31,0,0,0-20-5.79,45.51,45.51,0,0,0-10.74.71,40.09,40.09,0,0,0-10.59,3.3,38.53,38.53,0,0,0-20.89,30.73,33.59,33.59,0,0,0,2,14.35A34.89,34.89,0,0,0,479,236.49a44.17,44.17,0,0,0,16.2,4.3,48.65,48.65,0,0,0,16.89-1.67,52.92,52.92,0,0,0,7-2.53,1,1,0,0,0,.72-1C519.71,233.64,519.62,231.73,519.52,229.6Z" transform="translate(-356.92 -88.47)"/><path class="cls-1" d="M417.91,305.81a4.51,4.51,0,0,1,1.56-1.15l32.47-19.91q23.13-14.17,46.26-28.35c2.05-1.25,1.33-1.28,3.49,0l78.43,48.08.15.08c2,1.26,2.13,1,.33,2.7a17.09,17.09,0,0,1-10.27,4.63,29.18,29.18,0,0,1-3,.14H432.54a20.68,20.68,0,0,1-7.68-1.25,16.89,16.89,0,0,1-6.43-4.34C418.24,306.28,418.08,306,417.91,305.81Z" transform="translate(-356.92 -88.47)"/><path class="cls-1" d="M523.5,263a3.54,3.54,0,0,1,1.21-1.29l55.55-45,.13-.12c1.45-1.15,1.29-1.36,2.43.33a12.89,12.89,0,0,1,2.28,7c0,.52,0,1,0,1.56q0,35.31,0,70.63c0,1-.05,2-.12,2.95-.13,1.59-.51,1.33-1.43.76l-7.41-4.55-50.55-31Z" transform="translate(-356.92 -88.47)"/><path class="cls-1" d="M415.26,300.41a4.31,4.31,0,0,1-.51-2c0-.58,0-1.16,0-1.74q0-35.85,0-71.7a14.19,14.19,0,0,1,1.08-5.76,6.94,6.94,0,0,1,.39-.77.39.39,0,0,1,.59-.14c.34.21.67.45,1,.69L475.6,261.3c.14.1.29.2.42.31,1.15.86,1.16.88,0,1.6q-9,5.52-17.93,11L417,299.4C416.45,299.73,415.9,300,415.26,300.41Z" transform="translate(-356.92 -88.47)"/><path class="cls-2" d="M519.52,229.6c.1,2.13.19,4,.3,6a1,1,0,0,1-.72,1,52.92,52.92,0,0,1-7,2.53,48.65,48.65,0,0,1-16.89,1.67,44.17,44.17,0,0,1-16.2-4.3,34.89,34.89,0,0,1-18.3-20.66,33.59,33.59,0,0,1-2-14.35,38.53,38.53,0,0,1,20.89-30.73,40.09,40.09,0,0,1,10.59-3.3,45.51,45.51,0,0,1,10.74-.71,43.31,43.31,0,0,1,20,5.79,27.58,27.58,0,0,1,13.44,18.23c2.63,11.44-.57,21.3-8.58,29.72a21.85,21.85,0,0,1-3.8,3,15.58,15.58,0,0,1-7.56,2.32,14.63,14.63,0,0,1-4.67-.37c-3.08-.74-5.81-2.06-7.37-5-.56-.09-.78.31-1.07.55a15.78,15.78,0,0,1-12.79,3.77,13.41,13.41,0,0,1-9.42-5.67,16.28,16.28,0,0,1-2.8-7.22,29.86,29.86,0,0,1,.68-10.36A27.82,27.82,0,0,1,482.34,190a21.23,21.23,0,0,1,7.26-6.12,16.16,16.16,0,0,1,12.48-1.21,11.6,11.6,0,0,1,4.25,2.31c.21.18.46.34.69.5,0,0,.12,0,.18,0a9.2,9.2,0,0,0,.67-2.3c.2-.67.28-.77.94-.77q3.13,0,6.27,0c.58,0,.74.19.62.75-.33,1.53-.68,3.06-1,4.58q-2.43,10.77-4.88,21.54c-.26,1.13-.58,2.24-.86,3.37a11.28,11.28,0,0,0-.21,4.48,6.19,6.19,0,0,0,.37,1.34,3.66,3.66,0,0,0,4.17,2.39,7.78,7.78,0,0,0,3-1,16.77,16.77,0,0,0,5.12-4.12,27.2,27.2,0,0,0,6.54-21.15,20.74,20.74,0,0,0-6.06-12.79,27.12,27.12,0,0,0-12.33-7.17,40.69,40.69,0,0,0-21.65,0,15.17,15.17,0,0,0-2.93,1.09,33.78,33.78,0,0,0-12.09,10,31.25,31.25,0,0,0-5.51,11.34c-3.34,14.37,3.23,26,13.28,32.29a34.43,34.43,0,0,0,12,4.48,38.92,38.92,0,0,0,19.56-1.57c1.92-.63,3.81-1.39,5.71-2.09Zm-35.93-21.3A13.39,13.39,0,0,0,485,215a6.9,6.9,0,0,0,7.53,3.37,11.2,11.2,0,0,0,6.52-4.34,18.51,18.51,0,0,0,2.71-4.83,55.2,55.2,0,0,0,2-6.64,27.39,27.39,0,0,0,.79-7.76,6.57,6.57,0,0,0-5.46-6.13,8.25,8.25,0,0,0-6.55,1.61,19.78,19.78,0,0,0-4.62,5.16,34.75,34.75,0,0,0-3.68,8.4A13.4,13.4,0,0,0,483.59,208.3Z" transform="translate(-356.92 -88.47)"/><path class="cls-3" d="M483.59,208.3a13.4,13.4,0,0,1,.69-4.44,34.75,34.75,0,0,1,3.68-8.4,19.78,19.78,0,0,1,4.62-5.16,8.25,8.25,0,0,1,6.55-1.61,6.57,6.57,0,0,1,5.46,6.13,27.39,27.39,0,0,1-.79,7.76,55.2,55.2,0,0,1-2,6.64,18.51,18.51,0,0,1-2.71,4.83,11.2,11.2,0,0,1-6.52,4.34A6.9,6.9,0,0,1,485,215,13.39,13.39,0,0,1,483.59,208.3Z" transform="translate(-356.92 -88.47)"/></svg>